HIERARCHY
ROOT Hips
{
	OFFSET 0.000000 0.000000 0.000000 
	CHANNELS 6 Xposition Yposition Zposition Yrotation Zrotation Xrotation 
	JOINT Lumbar
	{
		OFFSET 0.000000 0.000000 0.000000 
		CHANNELS 3 Zrotation Xrotation Yrotation
		JOINT Neck
		{
			OFFSET 0.000000 0.445665 0.000000 
			CHANNELS 3 Zrotation Xrotation Yrotation
			End Site
			{
				OFFSET 0.000000 0.227535 0.000000 
			}
		}
		JOINT RightShoulder
		{
			OFFSET 0.019635 0.377685 0.194865 
			CHANNELS 3 Zrotation Xrotation Yrotation
			JOINT RightElbow
			{
				OFFSET 0.000000 -0.243375 0.000000 
				CHANNELS 2 Zrotation Yrotation
				JOINT RightWrist
				{
					OFFSET 0.000000 -0.264825 0.000000 
					CHANNELS 2 Zrotation Xrotation
					End Site
					{
						OFFSET 0.006600 -0.176220 0.000990 
					}
				}
			}
		}
		JOINT LeftShoulder
		{
			OFFSET 0.019635 0.377685 -0.194865 
			CHANNELS 3 Zrotation Xrotation Yrotation
			JOINT LeftElbow
			{
				OFFSET 0.000000 -0.243375 0.000000 
				CHANNELS 2 Zrotation Yrotation
				JOINT LeftWrist
				{
					OFFSET 0.000000 -0.264825 0.000000 
					CHANNELS 2 Zrotation Xrotation
					End Site
					{
						OFFSET 0.006600 -0.176220 -0.000990 
					}
				}
			}
		}
	}
	JOINT RightHip
	{
		OFFSET 0.052140 -0.069960 0.075570 
		CHANNELS 3 Zrotation Xrotation Yrotation
		JOINT RightKnee
		{
			OFFSET 0.000000 -0.402270 0.000000 
			CHANNELS 1 Zrotation
			JOINT RightAnkle
			{
				OFFSET 0.000000 -0.404085 0.000000 
				CHANNELS 3 Zrotation Xrotation Yrotation
				End Site
				{
					OFFSET 0.204105 -0.089430 0.008415 
				}
			}
		}
	}
	JOINT LeftHip
	{
		OFFSET 0.052140 -0.069960 -0.075570 
		CHANNELS 3 Zrotation Xrotation Yrotation
		JOINT LeftKnee
		{
			OFFSET 0.000000 -0.402270 0.000000 
			CHANNELS 1 Zrotation
			JOINT LeftAnkle
			{
				OFFSET 0.000000 -0.404085 0.000000 
				CHANNELS 3 Zrotation Xrotation Yrotation
				End Site
				{
					OFFSET 0.204105 -0.089430 -0.008415 
				}
			}
		}
	}
}
MOTION
Frames: 22
Frame Time: 0.02
0.00213 -0.0001 0.00118 -2.04699 -22.63065 -1.42903 48.39379 2.67113 -4.70737 -11.03286 -5.31425 -0.27775 -23.2798 -15.14154 4.7049 43.50001 63.03038 0.40615 -4.60242 -37.30374 9.51543 8.75258 37.03269 -96.57862 14.24793 -0.4036 35.82087 -4.23149 -10.60005 -21.59924 -9.34176 -4.09135 -4.36432 37.22173 9.93857 10.76148 -27.53605 -8.90381 3.98722 4.27416
0.00171 -0.00011 0.00146 -1.93446 -22.49048 -1.43957 48.18794 2.62043 -4.68141 -11.00388 -5.33998 -0.27993 -23.41382 -14.76229 3.66642 43.51794 68.66295 1.76959 -3.54598 -37.05415 9.51246 8.64531 36.85336 -96.57826 14.27809 -0.40034 35.63851 -4.26811 -10.94298 -21.5639 -9.31555 -4.07434 -4.35559 37.10885 9.87876 10.43912 -27.49723 -8.93005 3.99567 4.28211
0.00128 -0.00012 0.00175 -1.82192 -22.35076 -1.45012 47.98265 2.56981 -4.6557 -10.97491 -5.36558 -0.28211 -23.54769 -14.38541 2.63341 43.53559 74.26925 3.12647 -2.49476 -36.80432 9.5095 8.53815 36.67489 -96.58123 14.309 -0.39764 35.45672 -4.30461 -11.28479 -21.52869 -9.28946 -4.05739 -4.34689 36.99645 9.81911 10.11763 -27.45854 -8.9562 4.00408 4.29004
0.00086 -0.00013 0.00203 -1.70968 -22.21102 -1.46064 47.77742 2.51925 -4.62984 -10.94601 -5.39123 -0.28429 -23.68134 -14.00757 1.59864 43.55342 79.88266 4.48522 -1.44199 -36.55536 9.50653 8.43122 36.49615 -96.58168 14.33928 -0.39452 35.2749 -4.34112 -11.62664 -21.49346 -9.26333 -4.04043 -4.33818 36.88392 9.75948 9.79622 -27.41984 -8.98236 4.01251 4.29798
0.00043 -0.00014 0.00231 -1.59757 -22.07086 -1.47111 47.57167 2.46863 -4.60369 -10.9171 -5.41699 -0.28648 -23.81505 -13.62678 0.55714 43.57163 85.52667 5.8517 -0.38302 -36.30696 9.50357 8.32413 36.31647 -96.57682 14.3683 -0.39051 35.09256 -4.37774 -11.96964 -21.45811 -9.2371 -4.0234 -4.32944 36.77089 9.6997 9.47404 -27.38101 -9.00862 4.02097 4.30594
0 -0.00015 0.00259 -1.48415 -21.93208 -1.48184 47.36736 2.41801 -4.5789 -10.88801 -5.44224 -0.28865 -23.94925 -13.25804 -0.4582 43.58812 91.05404 7.1885 0.65202 -36.05412 9.50064 8.21677 36.14056 -96.59581 14.40306 -0.39049 34.91195 -4.414 -12.30895 -21.42319 -9.2113 -4.00665 -4.32084 36.65985 9.64033 9.15404 -27.34263 -9.03451 4.02929 4.31379
-0.00042 -0.00016 0.00288 -1.3735 -21.79061 -1.49203 47.16036 2.36746 -4.55135 -10.85934 -5.46858 -0.29084 -24.08228 -12.86589 -1.5239 43.60798 96.80687 8.58268 1.73333 -35.81064 9.49756 8.11039 35.9572 -96.5688 14.42676 -0.38278 34.72797 -4.45093 -12.65526 -21.38743 -9.18464 -3.98934 -4.31196 36.54485 9.58019 8.82989 -27.30337 -9.06113 4.03788 4.32187
-0.00085 -0.00017 0.00316 -1.26029 -21.65172 -1.50274 46.95589 2.31682 -4.52645 -10.83025 -5.49376 -0.29302 -24.21646 -12.49453 -2.54528 43.62487 102.35755 9.92556 2.77333 -35.55825 9.49482 8.00253 35.78083 -96.58053 14.4597 -0.38155 34.54723 -4.48726 -12.99519 -21.35246 -9.15878 -3.97255 -4.30334 36.43363 9.52079 8.50977 -27.26495 -9.08706 4.04621 4.32973
-0.00128 -0.00018 0.00343 -1.14385 -21.51554 -1.51403 46.75422 2.26614 -4.5044 -10.80075 -5.51812 -0.29518 -24.35189 -12.15179 -3.5041 43.63755 107.63899 11.19943 3.75749 -35.29582 9.49167 7.89507 35.61249 -96.65485 14.50789 -0.39078 34.36986 -4.52281 -13.32716 -21.3184 -9.13386 -3.95638 -4.29505 36.3265 9.46214 8.19363 -27.22744 -9.11224 4.05426 4.33735
-0.00169 -0.00019 0.00376 -1.04567 -21.36244 -1.52181 46.53553 2.21589 -4.46478 -10.77392 -5.54899 -0.29742 -24.47967 -11.65405 -4.79765 43.67272 114.40298 12.85142 5.04686 -35.09365 9.48842 7.79192 35.39642 -96.41488 14.48026 -0.34745 34.17131 -4.56271 -13.70444 -21.2789 -9.10344 -3.93662 -4.28488 36.19424 9.3987 7.85174 -27.18436 -9.142 4.06407 4.34643
-0.00214 -0.00021 0.00397 -0.90922 -21.24591 -1.5371 46.35335 2.16463 -4.46294 -10.74128 -5.56498 -0.29952 -24.62381 -11.47705 -5.40126 43.66157 118.08212 13.71789 5.7027 -34.76287 9.48693 7.67551 35.282 -96.80837 14.6049 -0.41009 34.0186 -4.59354 -13.98643 -21.251 -9.08467 -3.92443 -4.27867 36.11602 9.34568 7.56603 -27.15323 -9.16191 4.07007 4.35237
-0.00264 -0.00026 0.0039 -0.66484 -21.2234 -1.57257 46.2672 2.11131 -4.56009 -10.69416 -5.54847 -0.30109 -24.81117 -12.24194 -3.95579 43.51283 112.85208 12.30518 4.51566 -34.08739 9.47736 7.5575 35.44178 -99.20703 15.21648 -0.80797 33.98347 -4.59804 -14.00199 -21.25441 -9.09799 -3.93332 -4.28346 36.17902 9.31894 7.42019 -27.1535 -9.15616 4.06634 4.35022
-0.00317 -0.00033 0.00372 -0.38282 -21.23866 -1.61572 46.2183 2.05681 -4.6961 -10.64107 -5.51492 -0.30256 -25.01498 -13.3182 -1.84432 43.31951 104.60317 10.12563 2.71083 -33.28132 9.47179 7.42048 35.70456 -102.19611 15.96914 -1.30467 33.99589 -4.5936 -13.92278 -21.26963 -9.12299 -3.94976 -4.29221 36.29747 9.3031 7.33314 -27.16603 -9.14028 4.05865 4.34484
-0.00369 -0.00038 0.00357 -0.11961 -21.2409 -1.65562 46.15536 2.00247 -4.8173 -10.58955 -5.48441 -0.30416 -25.21266 -14.21073 -0.14204 43.1535 98.03015 8.37903 1.25813 -32.52948 9.47299 7.26847 35.92324 -104.73585 16.6109 -1.72633 33.99191 -4.59427 -13.89018 -21.27969 -9.14257 -3.96255 -4.29909 36.39538 9.28376 7.22882 -27.17384 -9.12811 4.05227 4.34061
-0.00419 -0.00044 0.00349 0.15188 -21.22618 -1.69439 46.08114 1.94992 -4.92628 -10.54222 -5.47599 -0.30538 -25.40577 -15.27915 2.0027 42.95776 90.18228 6.27845 -0.4931 -31.79853 9.43856 7.21306 36.13052 -108.0253 17.44646 -2.27277 33.96603 -4.59082 -13.84249 -21.2886 -9.16263 -3.97632 -4.30629 36.47433 9.25826 7.08577 -27.17806 -9.11961 4.04789 4.33768
-0.00474 -0.00051 0.00325 0.41376 -21.25516 -1.73748 46.03819 1.89309 -5.07026 -10.48554 -5.41468 -0.3074 -25.61094 -16.05881 3.39449 42.81322 84.25609 4.72825 -1.774 -30.9937 9.47849 6.95585 36.38619 -109.91283 17.91683 -2.58605 33.99705 -4.59344 -13.80372 -21.30309 -9.18451 -3.98981 -4.31376 36.60513 9.24822 7.03602 -27.19267 -9.10114 4.03849 4.33133
-0.00543 -0.00059 0.00259 0.65011 -21.40048 -1.78921 46.08124 1.82692 -5.2986 -10.39779 -5.23546 -0.31157 -25.85627 -15.93049 2.44813 42.82194 84.54373 4.93287 -1.55909 -30.01318 9.73012 6.11243 36.74813 -107.61199 17.29993 -2.20202 34.17365 -4.6184 -13.81425 -21.32757 -9.20807 -4.00062 -4.32102 36.87186 9.27787 7.24037 -27.23271 -9.0572 4.01548 4.31573
-0.00617 -0.00067 0.00179 0.87313 -21.58751 -1.84525 46.15271 1.75603 -5.56139 -10.30221 -4.99889 -0.31662 -26.11057 -15.50672 0.7383 42.8831 86.83967 5.70937 -0.85775 -28.9642 10.05535 5.07287 37.15571 -103.9113 16.3186 -1.58526 34.40619 -4.64917 -13.83728 -21.35828 -9.23307 -4.01084 -4.32839 37.18752 9.32283 7.53439 -27.28274 -9.00375 3.98775 4.29691
-0.0069 -0.00076 0.00106 1.09607 -21.75225 -1.90032 46.20556 1.68586 -5.81014 -10.21446 -4.77319 -0.32127 -26.35434 -15.24127 -0.55874 42.92019 88.10566 6.19304 -0.40924 -27.94819 10.34169 4.14516 37.54361 -100.96542 15.5335 -1.09433 34.61258 -4.67505 -13.853 -21.3871 -9.2578 -4.02139 -4.33573 37.47675 9.36089 7.78038 -27.3285 -8.95483 3.96262 4.27992
-0.00758 -0.00083 0.00028 1.34796 -21.93252 -1.95168 46.28429 1.62177 -6.05317 -10.10794 -4.61207 -0.32569 -26.62827 -14.88699 -2.10871 42.95857 89.75856 6.78845 0.15115 -26.91713 10.64999 3.12087 37.93011 -97.54201 14.62523 -0.52256 34.82224 -4.71004 -13.87022 -21.4101 -9.2816 -4.03211 -4.34323 37.78616 9.39877 8.05971 -27.37393 -8.90431 3.93526 4.2612
-0.00837 -0.00095 -0.00043 1.53373 -22.08968 -2.01146 46.31475 1.54379 -6.31614 -10.03941 -4.30175 -0.33111 -26.83838 -14.6412 -3.32399 43.00501 91.12527 7.29758 0.60294 -25.90616 10.93143 2.25143 38.32966 -94.76969 13.88372 -0.06207 35.03959 -4.72765 -13.89113 -21.4494 -9.30719 -4.04202 -4.35025 38.06379 9.44089 8.28946 -27.42179 -8.85542 3.91167 4.24547
-0.00944 -0.00122 -0.00101 1.55831 -22.17399 -2.09509 46.21039 1.42977 -6.6227 -10.07208 -3.60503 -0.33633 -26.89524 -14.7853 -3.41347 43.08104 91.19618 7.42667 0.63169 -24.9409 11.10809 1.85824 38.74792 -94.16453 13.70326 0.02981 35.24881 -4.69441 -13.89495 -21.50784 -9.34023 -4.0518 -4.35704 38.24676 9.48764 8.36518 -27.47788 -8.81003 3.89807 4.23794
